<svg xmlns="http://www.w3.org/2000/svg" viewBox="0 0 22 22"><defs><style>.cls-1{fill:#999;}</style></defs><title>joe_footer_iconsWhite</title><g id="Layer_2" data-name="Layer 2"><g id="Layer_1-2" data-name="Layer 1"><path id="White" class="cls-1" d="M20.79,0H1.21A1.21,1.21,0,0,0,0,1.21V20.79A1.21,1.21,0,0,0,1.21,22H11.75V13.48H8.88V10.16h2.87V7.71A4,4,0,0,1,16,3.32a23.52,23.52,0,0,1,2.56.13v3H16.83c-1.38,0-1.65.66-1.65,1.62v2.12h3.29L18,13.48H15.18V22h5.61A1.21,1.21,0,0,0,22,20.79V1.21A1.21,1.21,0,0,0,20.79,0Z"/></g></g></svg>