<svg xmlns="http://www.w3.org/2000/svg" viewBox="0 0 22 22"><defs><style>.cls-1{fill:#999;}</style></defs><title>joe_footer_iconsAsset 1</title><g id="Layer_2" data-name="Layer 2"><g id="Layer_1-2" data-name="Layer 1"><path class="cls-1" d="M11,2c2.94,0,3.29,0,4.44.06a6.09,6.09,0,0,1,2,.38,3.41,3.41,0,0,1,1.26.82,3.41,3.41,0,0,1,.82,1.26,6.09,6.09,0,0,1,.38,2C20,7.71,20,8.06,20,11s0,3.29-.06,4.44a6.09,6.09,0,0,1-.38,2,3.64,3.64,0,0,1-2.09,2.09,6.09,6.09,0,0,1-2,.38C14.29,20,13.94,20,11,20S7.71,20,6.56,20a6.09,6.09,0,0,1-2-.38,3.41,3.41,0,0,1-1.26-.82,3.41,3.41,0,0,1-.82-1.26,6.09,6.09,0,0,1-.38-2C2,14.29,2,13.94,2,11S2,7.71,2,6.56a6.09,6.09,0,0,1,.38-2,3.41,3.41,0,0,1,.82-1.26,3.41,3.41,0,0,1,1.26-.82,6.09,6.09,0,0,1,2-.38C7.71,2,8.06,2,11,2m0-2C8,0,7.64,0,6.46.07A8.07,8.07,0,0,0,3.79.58,5.39,5.39,0,0,0,1.85,1.85,5.39,5.39,0,0,0,.58,3.79,8.07,8.07,0,0,0,.07,6.46C0,7.64,0,8,0,11s0,3.36.07,4.54a8.07,8.07,0,0,0,.51,2.67,5.39,5.39,0,0,0,1.27,1.95,5.39,5.39,0,0,0,1.95,1.27,8.07,8.07,0,0,0,2.67.51C7.64,22,8,22,11,22s3.36,0,4.54-.07a8.07,8.07,0,0,0,2.67-.51,5.62,5.62,0,0,0,3.22-3.22,8.07,8.07,0,0,0,.51-2.67C22,14.36,22,14,22,11s0-3.36-.07-4.54a8.07,8.07,0,0,0-.51-2.67,5.39,5.39,0,0,0-1.27-1.95A5.39,5.39,0,0,0,18.21.58,8.07,8.07,0,0,0,15.54.07C14.36,0,14,0,11,0Z"/><path class="cls-1" d="M11,5.35A5.65,5.65,0,1,0,16.65,11,5.65,5.65,0,0,0,11,5.35Zm0,9.32A3.67,3.67,0,1,1,14.67,11,3.67,3.67,0,0,1,11,14.67Z"/><circle class="cls-1" cx="16.87" cy="5.13" r="1.32"/></g></g></svg>